<mxfile host="app.diagrams.net" agent="Mozilla/5.0 (Windows NT 10.0; Win64; x64) AppleWebKit/537.36 (KHTML, like Gecko) Chrome/139.0.0.0 Safari/537.36" version="28.2.3">
  <diagram name="第 1 页" id="sDMng8MVYDBJNHY7O4nM">
    <mxGraphModel dx="648" dy="702" grid="1" gridSize="10" guides="1" tooltips="1" connect="1" arrows="1" fold="1" page="1" pageScale="1" pageWidth="827" pageHeight="1169" math="0" shadow="0">
      <root>
        <mxCell id="0" />
        <mxCell id="1" parent="0" />
        <mxCell id="x9j9z8RtAidZ_UCpTjH_-34" value="" style="rounded=0;whiteSpace=wrap;html=1;fillColor=none;dashed=1;" vertex="1" parent="1">
          <mxGeometry x="700" y="407.5" width="446" height="150" as="geometry" />
        </mxCell>
        <mxCell id="x9j9z8RtAidZ_UCpTjH_-1" value="课程标准&#xa;2017版·2020修订版" style="rounded=1;whiteSpace=wrap;arcSize=50;strokeWidth=1;" vertex="1" parent="1">
          <mxGeometry x="707" y="259.5" width="130" height="58" as="geometry" />
        </mxCell>
        <mxCell id="x9j9z8RtAidZ_UCpTjH_-2" value="教材必修二&#xa;《信息系统与社会》" style="rounded=1;whiteSpace=wrap;arcSize=50;strokeWidth=1;" vertex="1" parent="1">
          <mxGeometry x="858" y="259.5" width="130" height="58" as="geometry" />
        </mxCell>
        <mxCell id="x9j9z8RtAidZ_UCpTjH_-3" value="学情与学习风格" style="rounded=1;whiteSpace=wrap;arcSize=50;strokeWidth=1;" vertex="1" parent="1">
          <mxGeometry x="1007" y="259.5" width="130" height="58" as="geometry" />
        </mxCell>
        <mxCell id="x9j9z8RtAidZ_UCpTjH_-4" value="分析 Analysis" style="whiteSpace=wrap;strokeWidth=1;" vertex="1" parent="1">
          <mxGeometry x="832" y="184.5" width="200" height="40" as="geometry" />
        </mxCell>
        <mxCell id="x9j9z8RtAidZ_UCpTjH_-5" value="" style="shape=curlyBracket;whiteSpace=wrap;html=1;rounded=1;labelPosition=left;verticalLabelPosition=middle;align=right;verticalAlign=middle;direction=south;" vertex="1" parent="1">
          <mxGeometry x="771.5" y="227.5" width="310" height="20" as="geometry" />
        </mxCell>
        <mxCell id="x9j9z8RtAidZ_UCpTjH_-6" value="设计 Design&#xa;目标→脚本→规格" style="whiteSpace=wrap;strokeWidth=1;" vertex="1" parent="1">
          <mxGeometry x="727" y="362.5" width="400" height="30" as="geometry" />
        </mxCell>
        <mxCell id="x9j9z8RtAidZ_UCpTjH_-7" value="教学设计案例" style="whiteSpace=wrap;strokeWidth=1;" vertex="1" parent="1">
          <mxGeometry x="748" y="422.5" width="40" height="120" as="geometry" />
        </mxCell>
        <mxCell id="x9j9z8RtAidZ_UCpTjH_-12" value="多媒体课件" style="whiteSpace=wrap;strokeWidth=1;" vertex="1" parent="1">
          <mxGeometry x="829" y="422.5" width="40" height="120" as="geometry" />
        </mxCell>
        <mxCell id="x9j9z8RtAidZ_UCpTjH_-30" style="edgeStyle=orthogonalEdgeStyle;rounded=0;orthogonalLoop=1;jettySize=auto;html=1;exitX=0.5;exitY=0;exitDx=0;exitDy=0;entryX=0.5;entryY=1;entryDx=0;entryDy=0;" edge="1" parent="1" source="x9j9z8RtAidZ_UCpTjH_-13" target="x9j9z8RtAidZ_UCpTjH_-6">
          <mxGeometry relative="1" as="geometry" />
        </mxCell>
        <mxCell id="x9j9z8RtAidZ_UCpTjH_-13" value="微课视频" style="whiteSpace=wrap;strokeWidth=1;" vertex="1" parent="1">
          <mxGeometry x="907" y="422.5" width="40" height="120" as="geometry" />
        </mxCell>
        <mxCell id="x9j9z8RtAidZ_UCpTjH_-14" value="互动学习网页" style="whiteSpace=wrap;strokeWidth=1;" vertex="1" parent="1">
          <mxGeometry x="1067" y="422.5" width="40" height="120" as="geometry" />
        </mxCell>
        <mxCell id="x9j9z8RtAidZ_UCpTjH_-15" value="三维游戏" style="whiteSpace=wrap;strokeWidth=1;" vertex="1" parent="1">
          <mxGeometry x="989" y="422.5" width="40" height="120" as="geometry" />
        </mxCell>
        <mxCell id="x9j9z8RtAidZ_UCpTjH_-21" value="教案/案例文档" style="shape=cylinder3;boundedLbl=1;backgroundOutline=1;size=10;strokeWidth=1;whiteSpace=wrap;" vertex="1" parent="1">
          <mxGeometry x="742" y="644.5" width="50" height="70" as="geometry" />
        </mxCell>
        <mxCell id="x9j9z8RtAidZ_UCpTjH_-22" value="PPT课件/导学单" style="shape=cylinder3;boundedLbl=1;backgroundOutline=1;size=10;strokeWidth=1;whiteSpace=wrap;" vertex="1" parent="1">
          <mxGeometry x="823" y="644.5" width="50" height="70" as="geometry" />
        </mxCell>
        <mxCell id="x9j9z8RtAidZ_UCpTjH_-41" style="edgeStyle=orthogonalEdgeStyle;rounded=0;orthogonalLoop=1;jettySize=auto;html=1;exitX=0.5;exitY=0;exitDx=0;exitDy=0;exitPerimeter=0;entryX=0.5;entryY=1;entryDx=0;entryDy=0;" edge="1" parent="1" source="x9j9z8RtAidZ_UCpTjH_-23" target="x9j9z8RtAidZ_UCpTjH_-37">
          <mxGeometry relative="1" as="geometry" />
        </mxCell>
        <mxCell id="x9j9z8RtAidZ_UCpTjH_-23" value="微课视频 mp4" style="shape=cylinder3;boundedLbl=1;backgroundOutline=1;size=10;strokeWidth=1;whiteSpace=wrap;" vertex="1" parent="1">
          <mxGeometry x="906" y="644.5" width="50" height="70" as="geometry" />
        </mxCell>
        <mxCell id="x9j9z8RtAidZ_UCpTjH_-24" value="游戏可执行包/关卡" style="shape=cylinder3;boundedLbl=1;backgroundOutline=1;size=10;strokeWidth=1;whiteSpace=wrap;" vertex="1" parent="1">
          <mxGeometry x="983" y="644.5" width="50" height="70" as="geometry" />
        </mxCell>
        <mxCell id="x9j9z8RtAidZ_UCpTjH_-25" value="H5网页小程序" style="shape=cylinder3;boundedLbl=1;backgroundOutline=1;size=10;strokeWidth=1;whiteSpace=wrap;" vertex="1" parent="1">
          <mxGeometry x="1061" y="644.5" width="50" height="70" as="geometry" />
        </mxCell>
        <mxCell id="x9j9z8RtAidZ_UCpTjH_-26" value="" style="shape=singleArrow;direction=south;whiteSpace=wrap;html=1;" vertex="1" parent="1">
          <mxGeometry x="903" y="327.5" width="40" height="30" as="geometry" />
        </mxCell>
        <mxCell id="x9j9z8RtAidZ_UCpTjH_-27" value="" style="rounded=0;whiteSpace=wrap;html=1;fillColor=none;dashed=1;" vertex="1" parent="1">
          <mxGeometry x="701" y="252.5" width="446" height="70" as="geometry" />
        </mxCell>
        <mxCell id="x9j9z8RtAidZ_UCpTjH_-28" style="edgeStyle=orthogonalEdgeStyle;rounded=0;orthogonalLoop=1;jettySize=auto;html=1;exitX=0.5;exitY=0;exitDx=0;exitDy=0;entryX=0.104;entryY=0.96;entryDx=0;entryDy=0;entryPerimeter=0;" edge="1" parent="1" source="x9j9z8RtAidZ_UCpTjH_-7" target="x9j9z8RtAidZ_UCpTjH_-6">
          <mxGeometry relative="1" as="geometry" />
        </mxCell>
        <mxCell id="x9j9z8RtAidZ_UCpTjH_-29" style="edgeStyle=orthogonalEdgeStyle;rounded=0;orthogonalLoop=1;jettySize=auto;html=1;exitX=0.5;exitY=0;exitDx=0;exitDy=0;entryX=0.308;entryY=0.96;entryDx=0;entryDy=0;entryPerimeter=0;" edge="1" parent="1" source="x9j9z8RtAidZ_UCpTjH_-12" target="x9j9z8RtAidZ_UCpTjH_-6">
          <mxGeometry relative="1" as="geometry" />
        </mxCell>
        <mxCell id="x9j9z8RtAidZ_UCpTjH_-31" style="edgeStyle=orthogonalEdgeStyle;rounded=0;orthogonalLoop=1;jettySize=auto;html=1;exitX=0.5;exitY=0;exitDx=0;exitDy=0;entryX=0.708;entryY=0.987;entryDx=0;entryDy=0;entryPerimeter=0;" edge="1" parent="1" source="x9j9z8RtAidZ_UCpTjH_-15" target="x9j9z8RtAidZ_UCpTjH_-6">
          <mxGeometry relative="1" as="geometry" />
        </mxCell>
        <mxCell id="x9j9z8RtAidZ_UCpTjH_-33" style="edgeStyle=orthogonalEdgeStyle;rounded=0;orthogonalLoop=1;jettySize=auto;html=1;exitX=0.5;exitY=0;exitDx=0;exitDy=0;entryX=0.904;entryY=0.96;entryDx=0;entryDy=0;entryPerimeter=0;" edge="1" parent="1" source="x9j9z8RtAidZ_UCpTjH_-14" target="x9j9z8RtAidZ_UCpTjH_-6">
          <mxGeometry relative="1" as="geometry" />
        </mxCell>
        <mxCell id="x9j9z8RtAidZ_UCpTjH_-35" value="实施 Implementation&#xa;课前/课中/课后投放" style="whiteSpace=wrap;strokeWidth=1;" vertex="1" parent="1">
          <mxGeometry x="726.5" y="756.5" width="400" height="40" as="geometry" />
        </mxCell>
        <mxCell id="x9j9z8RtAidZ_UCpTjH_-36" value="评价 Evaluation&#xa;学习数据/满意度/素养达成" style="whiteSpace=wrap;strokeWidth=1;" vertex="1" parent="1">
          <mxGeometry x="726.5" y="826.5" width="400" height="40" as="geometry" />
        </mxCell>
        <mxCell id="x9j9z8RtAidZ_UCpTjH_-37" value="开发devlepment" style="whiteSpace=wrap;strokeWidth=1;" vertex="1" parent="1">
          <mxGeometry x="726.5" y="596.5" width="400" height="21" as="geometry" />
        </mxCell>
        <mxCell id="x9j9z8RtAidZ_UCpTjH_-38" value="" style="shape=singleArrow;direction=south;whiteSpace=wrap;html=1;" vertex="1" parent="1">
          <mxGeometry x="903" y="561.5" width="40" height="30" as="geometry" />
        </mxCell>
        <mxCell id="x9j9z8RtAidZ_UCpTjH_-39" style="edgeStyle=orthogonalEdgeStyle;rounded=0;orthogonalLoop=1;jettySize=auto;html=1;exitX=0.5;exitY=0;exitDx=0;exitDy=0;exitPerimeter=0;entryX=0.101;entryY=1.162;entryDx=0;entryDy=0;entryPerimeter=0;" edge="1" parent="1" source="x9j9z8RtAidZ_UCpTjH_-21" target="x9j9z8RtAidZ_UCpTjH_-37">
          <mxGeometry relative="1" as="geometry" />
        </mxCell>
        <mxCell id="x9j9z8RtAidZ_UCpTjH_-40" style="edgeStyle=orthogonalEdgeStyle;rounded=0;orthogonalLoop=1;jettySize=auto;html=1;exitX=0.5;exitY=0;exitDx=0;exitDy=0;exitPerimeter=0;entryX=0.304;entryY=1;entryDx=0;entryDy=0;entryPerimeter=0;" edge="1" parent="1" source="x9j9z8RtAidZ_UCpTjH_-22" target="x9j9z8RtAidZ_UCpTjH_-37">
          <mxGeometry relative="1" as="geometry" />
        </mxCell>
        <mxCell id="x9j9z8RtAidZ_UCpTjH_-42" style="edgeStyle=orthogonalEdgeStyle;rounded=0;orthogonalLoop=1;jettySize=auto;html=1;exitX=0.5;exitY=0;exitDx=0;exitDy=0;exitPerimeter=0;entryX=0.703;entryY=1.086;entryDx=0;entryDy=0;entryPerimeter=0;" edge="1" parent="1" source="x9j9z8RtAidZ_UCpTjH_-24" target="x9j9z8RtAidZ_UCpTjH_-37">
          <mxGeometry relative="1" as="geometry" />
        </mxCell>
        <mxCell id="x9j9z8RtAidZ_UCpTjH_-43" style="edgeStyle=orthogonalEdgeStyle;rounded=0;orthogonalLoop=1;jettySize=auto;html=1;exitX=0.5;exitY=0;exitDx=0;exitDy=0;exitPerimeter=0;entryX=0.903;entryY=1.048;entryDx=0;entryDy=0;entryPerimeter=0;" edge="1" parent="1" source="x9j9z8RtAidZ_UCpTjH_-25" target="x9j9z8RtAidZ_UCpTjH_-37">
          <mxGeometry relative="1" as="geometry" />
        </mxCell>
        <mxCell id="x9j9z8RtAidZ_UCpTjH_-44" value="" style="rounded=0;whiteSpace=wrap;html=1;fillColor=none;dashed=1;" vertex="1" parent="1">
          <mxGeometry x="701" y="637.5" width="446" height="90" as="geometry" />
        </mxCell>
        <mxCell id="x9j9z8RtAidZ_UCpTjH_-46" value="" style="shape=singleArrow;direction=south;whiteSpace=wrap;html=1;" vertex="1" parent="1">
          <mxGeometry x="911" y="732.5" width="40" height="20" as="geometry" />
        </mxCell>
        <mxCell id="x9j9z8RtAidZ_UCpTjH_-48" value="" style="shape=singleArrow;direction=south;whiteSpace=wrap;html=1;" vertex="1" parent="1">
          <mxGeometry x="912" y="801.5" width="40" height="20" as="geometry" />
        </mxCell>
      </root>
    </mxGraphModel>
  </diagram>
</mxfile>
